<svg xmlns="http://www.w3.org/2000/svg" xmlns:xlink="http://www.w3.org/1999/xlink"><defs>
        <clipPath id="a">
            <path fill="#fff" d="M0 0h22v22H0z"/>
        </clipPath>
    </defs><symbol id="arrow-left" viewBox="0 0 24 24"><g fill="none">
    <path d="M13.25 15.25 9.75 12l3.5-3.25" stroke="currentColor" stroke-width="1.5" stroke-linecap="round" stroke-linejoin="round"/>
</g></symbol><symbol id="arrow-right" viewBox="0 0 24 24"><g fill="none">
    <path d="m10.75 8.75 3.5 3.25-3.5 3.25" stroke="currentColor" stroke-width="1.5" stroke-linecap="round" stroke-linejoin="round"/>
</g></symbol><symbol id="arrow" viewBox="0 0 24 24"><g fill="none">
    <g stroke="currentColor" stroke-width="1.5" stroke-linecap="round" stroke-linejoin="round">
        <path d="M10.25 6.75 4.75 12l5.5 5.25M19.25 12H5"/>
    </g>
</g></symbol><symbol id="basket" viewBox="0 0 24 24"><g fill="none">
    <g stroke="currentColor" stroke-width="1.5" stroke-linecap="round" stroke-linejoin="round">
        <path d="m7.75 7.75-.75-3H4.75m3 3h11.5l-1.637 6.958a2 2 0 0 1-1.947 1.542h-4.127a2 2 0 0 1-1.933-1.488L7.75 7.75ZM10 20a1 1 0 1 0 0-2 1 1 0 0 0 0 2Z"/>
        <path d="M17 20a1 1 0 1 0 0-2 1 1 0 0 0 0 2Z" fill="#000"/>
    </g>
</g></symbol><symbol id="calendar" viewBox="0 0 24 24"><g fill="none">
    <g stroke="currentColor" stroke-width="1.5" stroke-linecap="round" stroke-linejoin="round">
        <path d="M4.75 8.75a2 2 0 0 1 2-2h10.5a2 2 0 0 1 2 2v8.5a2 2 0 0 1-2 2H6.75a2 2 0 0 1-2-2v-8.5ZM8 4.75v3.5M16 4.75v3.5M7.75 10.75h8.5"/>
    </g>
</g></symbol><symbol id="circle" viewBox="0 0 11 11"><g fill="none">
    <circle cx="5.5" cy="5.5" r="5.5" fill="#6ECB03"/>
</g></symbol><symbol id="close" viewBox="0 0 24 24"><g fill="none">
    <g stroke="currentColor" stroke-width="1.5" stroke-linecap="round" stroke-linejoin="round">
        <path d="m17.25 6.75-10.5 10.5M6.75 6.75l10.5 10.5"/>
    </g>
</g></symbol><symbol id="hart" viewBox="0 0 16 14"><g fill="none">
    <path clip-rule="evenodd" d="M7.995 2.233C6.545.61 4.128.173 2.312 1.66.496 3.146.24 5.63 1.667 7.39l6.328 5.86 6.328-5.86c1.427-1.759 1.202-4.26-.645-5.73C11.83.189 9.445.61 7.995 2.233Z" stroke="currentColor" stroke-width="1.5" stroke-linecap="round" stroke-linejoin="round"/>
</g></symbol><symbol id="icon-catalog"><g fill="none">
    <g stroke="currentColor" stroke-width="1.5" stroke-linecap="round" stroke-linejoin="round">
        <path d="M4.75 5.75a1 1 0 0 1 1-1h3.5a1 1 0 0 1 1 1v3.5a1 1 0 0 1-1 1h-3.5a1 1 0 0 1-1-1v-3.5ZM4.75 14.75a1 1 0 0 1 1-1h3.5a1 1 0 0 1 1 1v3.5a1 1 0 0 1-1 1h-3.5a1 1 0 0 1-1-1v-3.5ZM13.75 5.75a1 1 0 0 1 1-1h3.5a1 1 0 0 1 1 1v3.5a1 1 0 0 1-1 1h-3.5a1 1 0 0 1-1-1v-3.5ZM13.75 14.75a1 1 0 0 1 1-1h3.5a1 1 0 0 1 1 1v3.5a1 1 0 0 1-1 1h-3.5a1 1 0 0 1-1-1v-3.5Z"/>
    </g>
</g></symbol><symbol id="log-in" viewBox="0 0 24 24"><g fill="none">
    <g stroke="currentColor" stroke-width="1.5" stroke-linecap="round" stroke-linejoin="round">
        <path d="m15.75 8.75 3.5 3.25-3.5 3.25M19 12h-8.25M15.25 4.75h-8.5a2 2 0 0 0-2 2v10.5a2 2 0 0 0 2 2h8.5"/>
    </g>
</g></symbol><symbol id="minus" viewBox="0 0 24 24"><g fill="none">
    <path d="M18.25 12H5.75" stroke="currentColor" stroke-width="1.5" stroke-linecap="round" stroke-linejoin="round"/>
</g></symbol><symbol id="plus" viewBox="0 0 24 24"><g fill="none">
    <g stroke="currentColor" stroke-width="1.5" stroke-linecap="round" stroke-linejoin="round">
        <path d="M12 5.75v12.5M18.25 12H5.75"/>
    </g>
</g></symbol><symbol id="signature" viewBox="0 0 100 40"><g fill="none">
    <path fill-rule="evenodd" clip-rule="evenodd" d="M37.553.163c-.386.14-.648.373-.727.648-.154.54-.842 2.908-1.05 3.615a97.777 97.777 0 0 1-.496 1.593c-.56 1.749-1.552 5.057-1.87 6.235-.165.606-.388 1.176-.497 1.266-.108.09-.67.2-1.25.247a41.58 41.58 0 0 0-2.36.282c-.756.114-1.374.132-1.463.042-.09-.09-.01-.707.19-1.46.709-2.674 1.615-7.48 1.615-8.56 0-.726-.061-.837-.728-1.325-.566-.413-.914-.531-1.56-.531-1.288 0-1.554.32-1.753 2.123-.182 1.656-.861 5.031-1.833 9.113-1.23 5.173-1.835 8.925-1.895 11.773-.05 2.364.17 2.826 1.354 2.826 1.46 0 1.964-.766 2.387-3.628.116-.778.401-2.381.635-3.561.234-1.18.466-2.37.514-2.642.05-.273.125-.554.169-.625.043-.072.77-.179 1.614-.239.844-.06 1.963-.187 2.486-.281.522-.095.983-.139 1.023-.099.07.07-.292 2.976-.664 5.338-.402 2.552-.01 4.831.878 5.116.5.16 1.693-.057 1.936-.352.457-.556.878-2.16.88-3.36.007-2.622 1.267-8.427 2.996-13.805 1.19-3.7 1.758-5.494 2.176-6.876l.474-1.567-.564-.587c-.31-.322-.772-.636-1.026-.697-.253-.06-.58-.14-.724-.176-.145-.035-.535.034-.867.154ZM4.75 1.463c-.405.389-.616.91-1.057 2.61-.304 1.167-.627 2.521-.718 3.008a17.627 17.627 0 0 1-.356 1.504C2.247 9.815 1.09 15.777.44 19.82c-.5 3.113-.57 4.638-.231 5.104.297.41 1.724.44 2.316.049.745-.492 1.022-1.189 1.59-4.002.504-2.49.646-3.009.822-3.009.097 0 .425.21.729.464 1.942 1.632 2.548 2.18 3.095 2.797 1.828 2.066 1.83 2.068 2.546 2.158.897.112 1.794-.364 2.109-1.12.381-.915-.177-1.762-3.018-4.578-1.382-1.37-2.514-2.58-2.514-2.69 0-.11.376-.42.834-.687 4.333-2.53 7.468-6.002 8.474-9.388.181-.612.179-.798-.012-1.03-.689-.837-2.845-1.289-3.33-.7-.121.148-.287.63-.37 1.071-.08.442-.443 1.257-.803 1.812-.864 1.331-3.9 4.41-5.252 5.325-.983.665-1.646.91-1.646.608 0-.066.402-1.798.894-3.849 1.076-4.489 1.231-5.785.754-6.317C6.573.89 5.505.738 4.75 1.462Zm64.745 2.771c-.707.736-.698 1.303.03 1.983.76.71 1.376.952 2.42.952 1.052 0 1.7-.488 1.4-1.054a1.955 1.955 0 0 1-.185-.748c-.009-.632-.348-.934-1.398-1.244-1.676-.496-1.684-.495-2.267.111ZM42.338 9.846c-1.135.204-1.724.595-2.673 1.778-1.93 2.404-2.818 5.413-2.823 9.555-.003 2.005.3 2.919 1.286 3.888 1.088 1.068 1.786 1.322 2.877 1.044 1.65-.418 3.73-2.246 4.39-3.856.169-.413.347-.747.395-.742.049.005.348.559.666 1.23.686 1.452 1.476 2.322 2.558 2.82 1.081.496 1.79.455 2.863-.166 1.085-.627 1.601-1.288 2.214-2.833 1.384-3.487 2.424-5.662 2.707-5.662.056 0 .05 1.055-.013 2.344-.128 2.631.06 4.248.63 5.4.561 1.135.903 1.372 1.95 1.35 1.724-.036 2.861-1.016 5.112-4.405l.705-1.062.12 1.47c.19 2.314 1.096 3.75 2.364 3.75.276 0 1.01-.298 1.632-.663 1.124-.66 1.71-1.32 2.468-2.787.201-.39.46-.868.576-1.063.116-.195.5-.872.855-1.504s1.004-1.547 1.442-2.034c.668-.742.798-.823.803-.502.003.21-.158.887-.359 1.504-1.137 3.499-.898 4.99.837 5.224 1.15.156 2.037-.489 3.652-2.65 1.147-1.536 1.316-1.594 1.316-.45 0 1.235.305 2.158.968 2.932.53.618.623.655 1.807.723 1.019.058 1.484-.014 2.539-.391 1.774-.635 1.881-.62 1.881.258 0 .919.222 1.326.927 1.698.996.525 2.473.403 3.945-.326 1.118-.554 1.27-.59 1.27-.307 0 .178-.622 2.059-1.383 4.18-1.534 4.273-2.35 6.724-2.729 8.191-.219.847-.218 1.025.003 1.37.459.715 1.05.992 1.662.777.751-.264 1.92-1.23 1.92-1.587 0-1.134 1.602-6.084 2.9-8.965.85-1.885 2.234-5.675 2.454-6.721.143-.683.418-1.84.61-2.57.403-1.532.439-2.26.145-2.955-.385-.912-.85-1.291-1.584-1.291-.714 0-.998.209-1.927 1.418-.463.601-.475.606-.486.175-.013-.535-.097-.66-.873-1.303-.52-.432-.701-.485-1.316-.387-.878.141-2.625 1.093-4.018 2.19-2.346 1.848-2.871 2.236-3.677 2.715-.96.57-1.27.619-1.422.22-.207-.545-.098-1.112.596-3.081.386-1.096.702-2.14.702-2.319 0-.64-.704-1.687-1.4-2.082-.635-.36-.762-.375-1.442-.17-.49.149-1.145.607-1.912 1.337-.642.61-1.217 1.11-1.278 1.11-.06 0-.11-.259-.111-.575-.003-1.696-.849-2.785-2.27-2.923-1.925-.186-4.343 1.797-6.81 5.586-.78 1.197-1.452 2.113-1.495 2.035-.137-.248.364-2.752.826-4.124.547-1.627.555-1.965.057-2.73-.38-.585-.875-.808-1.794-.808-.727 0-4.27 4.096-5.83 6.74-.46.781-1.054 1.674-1.32 1.985-.408.48-.51.525-.673.3-.233-.324-.101-2.672.264-4.69.327-1.809.333-2.952.019-3.71-.292-.703-1.547-1.687-2.153-1.687-.681 0-1.736.644-2.83 1.728-1.192 1.181-1.954 2.34-2.995 4.554-1.646 3.5-2.049 4.247-2.29 4.247-.487 0-.875-1.718-1.068-4.724-.102-1.587-.266-3.141-.366-3.454-.21-.661-1.553-2.104-2.44-2.624-1.203-.704-3.093-1.133-4.153-.943Zm2.157 3.483c-.132 1.006-.824 3.81-1.304 5.284-.515 1.58-1.706 3.686-2.085 3.686-1.012 0 .03-7 1.305-8.76.637-.88.91-1.061 1.593-1.061h.603l-.112.85Zm-28.427 4.747c-.836.91-.475 1.984.77 2.296.68.17.88.15 1.488-.153 1.396-.696 1.624-1.183.921-1.97-.316-.354-.625-.466-1.555-.56-1.117-.111-1.179-.096-1.624.387Zm78.157 1.833c0 .096-.48.674-1.066 1.283-1.233 1.279-1.176.966.087-.478.895-1.024.98-1.094.98-.805Z" fill="#111"/>
</g></symbol><symbol id="tagree" viewBox="0 0 56 17"><g fill="none">
    <path d="M5.464 12.695H3.27a3.15 3.15 0 0 1-1.276-.262 3.309 3.309 0 0 1-1.037-.704 3.6 3.6 0 0 1-.698-1.066A3.227 3.227 0 0 1 0 9.375V.604L2.393 0v3.843h1.396l.598 2.414H2.393v3.118c0 .255.086.47.26.644a.84.84 0 0 0 .617.261h1.596l.598 2.415ZM15.863 2.615v10.08H13.47v-5.03c0-.805-.28-1.489-.838-2.052a2.757 2.757 0 0 0-2.034-.845 2.91 2.91 0 0 0-1.116.221 2.862 2.862 0 0 0-.918.624 2.806 2.806 0 0 0-.837 2.052c0 .791.279 1.469.837 2.032.266.282.572.496.918.644.359.134.73.201 1.116.201.4 0 .758-.067 1.077-.201l.858 2.152c-.612.309-1.323.463-2.134.463a5.1 5.1 0 0 1-2.034-.402 5.065 5.065 0 0 1-1.596-1.147 5.252 5.252 0 0 1-1.056-1.69 5.567 5.567 0 0 1-.38-2.052c0-.738.127-1.428.38-2.072a5.252 5.252 0 0 1 1.056-1.69 4.807 4.807 0 0 1 1.596-1.127 4.892 4.892 0 0 1 2.034-.422c.651 0 1.23.1 1.735.302.505.2.95.456 1.336.764v-.805h2.393ZM27.49 11.689c0 .724-.14 1.408-.42 2.052a5.188 5.188 0 0 1-1.116 1.69 5.41 5.41 0 0 1-1.675 1.147 5.03 5.03 0 0 1-2.054.422 5.053 5.053 0 0 1-1.695-.282 5.279 5.279 0 0 1-1.476-.804l1.735-1.73c.425.268.904.402 1.436.402.81 0 1.489-.289 2.034-.865.558-.564.837-1.24.837-2.032V7.645c0-.778-.279-1.462-.837-2.052a2.757 2.757 0 0 0-2.034-.845c-.772 0-1.45.282-2.034.845-.559.59-.838 1.274-.838 2.052 0 .805.28 1.489.838 2.052.585.563 1.262.845 2.034.845.398 0 .757-.067 1.076-.201l.898 2.253a5.121 5.121 0 0 1-1.934.362h-.04a5.194 5.194 0 0 1-2.034-.402 5.41 5.41 0 0 1-2.812-2.837 5.151 5.151 0 0 1-.419-2.072 5.9 5.9 0 0 1 .359-2.072c.24-.644.572-1.207.997-1.69a4.648 4.648 0 0 1 1.556-1.127 4.709 4.709 0 0 1 1.994-.422c.691 0 1.303.107 1.834.322a5.37 5.37 0 0 1 1.396.764v-.784h2.393v9.053ZM31.084 3.4a5.173 5.173 0 0 1 1.256-.764 4.132 4.132 0 0 1 1.615-.302v2.414c-.797 0-1.475.282-2.034.845-.558.59-.837 1.274-.837 2.052v5.05H28.69V2.615h2.393V3.4ZM42.014 8.872h-5.225c.133.309.325.584.578.825.28.282.592.496.937.644.346.134.712.201 1.097.201.545 0 1.03-.127 1.456-.382l2.493 1.006a5.144 5.144 0 0 1-1.735 1.327 5.281 5.281 0 0 1-2.214.463 5.246 5.246 0 0 1-2.054-.402 5.41 5.41 0 0 1-2.812-2.837 5.322 5.322 0 0 1-.398-2.052c0-.738.132-1.428.398-2.072a5.464 5.464 0 0 1 1.137-1.69 5.136 5.136 0 0 1 1.675-1.127 5.03 5.03 0 0 1 2.054-.422c.731 0 1.416.14 2.054.422a5.136 5.136 0 0 1 1.675 1.127c.479.483.851 1.046 1.117 1.69.28.644.419 1.334.419 2.072 0 .43-.047.832-.14 1.207h-2.512ZM39.4 4.768c-.77 0-1.449.282-2.034.845a2.73 2.73 0 0 0-.578.845h5.225a2.733 2.733 0 0 0-.579-.845 2.757 2.757 0 0 0-2.034-.845ZM53.348 8.872h-5.225c.133.309.326.584.578.825.28.282.592.496.938.644.345.134.71.201 1.096.201.545 0 1.03-.127 1.456-.382l2.493 1.006a5.143 5.143 0 0 1-1.735 1.327 5.281 5.281 0 0 1-2.214.463 5.245 5.245 0 0 1-2.054-.402 5.41 5.41 0 0 1-2.811-2.837 5.322 5.322 0 0 1-.4-2.052c0-.738.134-1.428.4-2.072a5.464 5.464 0 0 1 1.136-1.69 5.136 5.136 0 0 1 1.675-1.127 5.03 5.03 0 0 1 2.054-.422c.732 0 1.416.14 2.054.422a5.136 5.136 0 0 1 1.675 1.127c.48.483.851 1.046 1.117 1.69.28.644.419 1.334.419 2.072 0 .43-.047.832-.14 1.207h-2.512Zm-2.613-4.104c-.77 0-1.449.282-2.034.845a2.733 2.733 0 0 0-.578.845h5.225a2.73 2.73 0 0 0-.579-.845 2.757 2.757 0 0 0-2.034-.845Z" fill="#111"/>
</g></symbol><symbol id="telegram" viewBox="0 0 22 22"><g fill="none">
    <g clip-path="url(#a)">
        <path fill-rule="evenodd" clip-rule="evenodd" d="M22 11c0 6.075-4.925 11-11 11S0 17.075 0 11 4.925 0 11 0s11 4.925 11 11ZM11.394 8.12c-1.07.445-3.208 1.367-6.415 2.764-.52.207-.793.41-.818.607-.042.336.377.468.948.647l.24.077c.563.182 1.318.396 1.71.404.357.007.755-.14 1.194-.44 2.995-2.023 4.542-3.045 4.639-3.067.069-.016.164-.036.228.022.064.056.058.165.052.194-.043.177-1.687 1.707-2.54 2.499-.265.246-.453.421-.492.462-.086.089-.174.174-.258.256-.523.502-.913.88.022 1.496.449.296.808.54 1.167.784.391.267.781.533 1.287.865.129.084.252.171.372.256.455.326.865.617 1.371.571.293-.027.598-.303.752-1.127.364-1.949 1.08-6.17 1.246-7.91.01-.144.004-.289-.018-.432a.464.464 0 0 0-.158-.298c-.13-.107-.334-.13-.426-.128-.413.007-1.048.228-4.103 1.499Z" fill="#F3F3F3"/>
    </g>
    
</g></symbol><symbol id="truck" viewBox="0 0 24 24"><g fill="none">
    <g stroke="currentColor" stroke-width="1.5" stroke-linecap="round" stroke-linejoin="round">
        <path d="M15.25 15.25H4.75V4.75h10.5v10.5ZM9.25 17.5a1.75 1.75 0 1 1-3.5 0 1.75 1.75 0 0 1 3.5 0ZM18.25 17.5a1.75 1.75 0 1 1-3.5 0 1.75 1.75 0 0 1 3.5 0ZM19.25 15.25h-4v-6.5h1a3 3 0 0 1 3 3v3.5Z"/>
    </g>
</g></symbol><symbol id="Union" viewBox="0 0 1614 600"><g fill="none">
    <path fill-rule="evenodd" clip-rule="evenodd" d="M1615 0H245v1.08h20.881V598h11.52V1.08H1615V0ZM1.98 126H.54L23.04.18H27L54.9 126H43.2l-8.82-39.24H9L1.98 126ZM20.7 21.42h-.36l-1.26 7.02-9.9 57.24h24.84L22.14 28.44l-1.44-7.02ZM115.786 126V.18h11.52v62.46h29.88V.18h11.52V126h-11.52V63.72h-29.88V126h-11.52ZM197.208.18V126h38.7v-1.08h-27.18V62.28h23.4V61.2h-23.4V1.26h27.18V.18h-38.7ZM638.137 577.4c-.8-4.666-.733-9.8.2-15.4l12.2-69c.934-5.466 2.6-10.4 5-14.8 2.534-4.533 5.534-8.4 9-11.6a39.39 39.39 0 0 1 12.2-7.4c4.534-1.866 9.334-2.8 14.4-2.8 4.934 0 9.334.934 13.2 2.8 3.867 1.734 7 4.2 9.4 7.4 2.4 3.2 4 7.067 4.8 11.6.934 4.4.867 9.334-.2 14.8l-12.2 69c-.8 5.6-2.466 10.734-5 15.4-2.533 4.534-5.6 8.534-9.2 12-3.466 3.334-7.466 5.867-12 7.6-4.4 1.734-9.2 2.6-14.4 2.6-5.066 0-9.533-.866-13.4-2.6-3.733-1.866-6.8-4.4-9.2-7.6-2.4-3.333-4-7.333-4.8-12Zm35.4-106.4c-1.2 2.934-2.133 6.267-2.8 10l-16.6 94.2c-.666 3.734-.933 7.134-.8 10.2.267 2.934.867 5.4 1.8 7.4.934 1.867 2.267 3.267 4 4.2 1.867.934 4.134 1.4 6.8 1.4 2.667 0 5-.466 7-1.4 2.134-.933 4.067-2.4 5.8-4.4 1.734-2 3.134-4.4 4.2-7.2 1.2-2.933 2.134-6.333 2.8-10.2l16.8-94.2c.667-3.866.934-7.266.8-10.2-.133-2.933-.733-5.333-1.8-7.2-.933-2-2.333-3.466-4.2-4.4-1.733-1.066-3.866-1.6-6.4-1.6-2.666 0-5.066.534-7.2 1.6-2.133.934-4.066 2.4-5.8 4.4-1.6 2-3.066 4.467-4.4 7.4ZM564.8 598h-18l24.8-139.8H638L613.2 598H595l24.6-138.6h-30.2L564.8 598Zm222.512 0-12.4-58.4c-.666-3.2-1.533-5.8-2.6-7.8-.933-2.133-2.066-3.8-3.4-5-1.333-1.2-2.866-2-4.6-2.4-1.733-.4-3.6-.6-5.6-.6h-2.016l45.016-65.6h-2l-44.771 65.6h-6.572l11.543-65.6h-18l-24.8 139.8h18.2l12.846-73h.754c2 .134 3.534.867 4.6 2.2 1.067 1.334 1.934 3.867 2.6 7.6l12.4 63.2h18.8Zm8.886 0h-1.6l51.6-139.8h5.2l9.2 139.8h-18.6l-3-43.6h-26.8l-16 43.6Zm39.4-106.8h-.4l-3 8-19.4 54h26.2l-2.8-54-.6-8Zm61.728 108.4c6.134 0 11.867-.8 17.2-2.4 5.467-1.6 10.267-3.866 14.4-6.8a40.08 40.08 0 0 0 10.4-10.8c2.8-4.4 4.667-9.333 5.6-14.8l1.6-9c.8-4.533.867-8.533.2-12-.666-3.466-2-6.4-4-8.8-2-2.533-4.6-4.533-7.8-6-3.066-1.466-6.733-2.333-11-2.6l-4.2-.4.2-.8 4.4-.2c4-.266 7.667-1.066 11-2.4 3.467-1.466 6.467-3.333 9-5.6 2.667-2.4 4.867-5.333 6.6-8.8 1.867-3.6 3.2-7.6 4-12l1.2-7.2c.934-5.066.867-9.6-.2-13.6-1.066-4-3-7.4-5.8-10.2-2.8-2.8-6.333-4.933-10.6-6.4-4.266-1.6-9.133-2.4-14.6-2.4-6.266 0-12.333 1-18.2 3-5.866 2-10.933 4.867-15.2 8.6l.8.8a41.975 41.975 0 0 1 12.4-7.4c4.667-1.733 9.134-2.6 13.4-2.6 7.6 0 13.267 2.667 17 8 3.734 5.2 4.8 12.534 3.2 22l-1.6 8.4c-1.6 9.2-4.733 16.134-9.4 20.8-4.666 4.667-10.4 7-17.2 7h-4.6l-.2 1.2h4.6c3.734 0 6.934.6 9.6 1.8 2.8 1.2 5 3 6.6 5.4 1.734 2.267 2.8 5.134 3.2 8.6.4 3.467.267 7.467-.4 12l-2.2 11.6c-1.733 10.134-5.866 18-12.4 23.6-6.4 5.467-14.066 8.2-23 8.2-4.133 0-8.266-.6-12.4-1.8-4-1.2-7.933-3-11.8-5.4l-.8 1c4.134 2.8 8.867 4.934 14.2 6.4 5.334 1.334 10.934 2 16.8 2Zm47.896-1.6h-1.6l51.6-139.8h5.198l9.2 139.8h-18.598l-3-43.6h-26.8l-16 43.6Zm39.4-106.8h-.4l-3 8-19.4 54h26.2l-2.8-54-.6-8Zm25.808 104.6c2 1.334 4.13 2.267 6.4 2.8 2.26.667 4.66 1 7.2 1 3.73 0 7.33-.866 10.8-2.6 3.46-1.733 6.66-4.4 9.6-8 2.93-3.733 5.6-8.4 8-14 2.53-5.733 4.6-12.533 6.2-20.4l20.4-95.2h29.4l-24.4 138.6h18l24.6-139.8h-65.4l-23 109.2c-1.2 6-2.47 10.934-3.8 14.8-1.34 3.734-2.74 6.8-4.2 9.2-1.34 2.267-2.8 3.867-4.4 4.8-1.6.934-3.27 1.4-5 1.4-1.74 0-3.34-.2-4.8-.6-1.6-.533-3.2-1.333-4.8-2.4l-.8 1.2ZM1127 577.4c-.8-4.666-.73-9.8.2-15.4l12.2-69c.94-5.466 2.6-10.4 5-14.8 2.54-4.533 5.54-8.4 9-11.6 3.6-3.2 7.67-5.666 12.2-7.4 4.54-1.866 9.34-2.8 14.4-2.8 4.94 0 9.34.934 13.2 2.8 3.87 1.734 7 4.2 9.4 7.4 2.4 3.2 4 7.067 4.8 11.6.94 4.4.87 9.334-.2 14.8l-12.2 69c-.8 5.6-2.46 10.734-5 15.4-2.53 4.534-5.6 8.534-9.2 12-3.46 3.334-7.46 5.867-12 7.6-4.4 1.734-9.2 2.6-14.4 2.6-5.06 0-9.53-.866-13.4-2.6-3.73-1.866-6.8-4.4-9.2-7.6-2.4-3.333-4-7.333-4.8-12Zm35.4-106.4c-1.2 2.934-2.13 6.267-2.8 10l-16.6 94.2c-.66 3.734-.93 7.134-.8 10.2.27 2.934.87 5.4 1.8 7.4.94 1.867 2.27 3.267 4 4.2 1.87.934 4.14 1.4 6.8 1.4 2.67 0 5-.466 7-1.4 2.14-.933 4.07-2.4 5.8-4.4 1.74-2 3.14-4.4 4.2-7.2 1.2-2.933 2.14-6.333 2.8-10.2l16.8-94.2c.67-3.866.94-7.266.8-10.2-.13-2.933-.73-5.333-1.8-7.2-.93-2-2.33-3.466-4.2-4.4-1.73-1.066-3.86-1.6-6.4-1.6-2.66 0-5.06.534-7.2 1.6-2.13.934-4.06 2.4-5.8 4.4-1.6 2-3.06 4.467-4.4 7.4Zm50.35 90.8c-.93 5.734-1.07 10.934-.4 15.6.8 4.667 2.4 8.667 4.8 12 2.4 3.334 5.53 5.867 9.4 7.6 3.87 1.734 8.33 2.6 13.4 2.6 7.33 0 13.93-1.666 19.8-5 6-3.466 10.87-8.333 14.6-14.6l-1.2-.6a31.098 31.098 0 0 1-5.6 7.6 33.363 33.363 0 0 1-7.2 5.8 38.324 38.324 0 0 1-8.6 3.8c-3.07.934-6.13 1.4-9.2 1.4-6.13 0-10.33-1.933-12.6-5.8-2.27-3.866-2.67-10.066-1.2-18.6l16.4-92c1.33-7.6 3.93-13.4 7.8-17.4 4-4 9.07-6 15.2-6 4.27 0 8.07.867 11.4 2.6 3.47 1.734 6.4 4.267 8.8 7.6l1-.8c-2.8-3.733-6.2-6.533-10.2-8.4-4-1.866-8.6-2.8-13.8-2.8-5.2 0-10.07.934-14.6 2.8-4.4 1.734-8.4 4.2-12 7.4-3.47 3.2-6.4 7.067-8.8 11.6-2.4 4.534-4.07 9.534-5 15l-12.2 68.6Zm93.42-103.6h18l-10.8 61.2h13c4.67 0 8.8.867 12.4 2.6 3.73 1.6 6.8 3.934 9.2 7 2.4 2.934 4.07 6.467 5 10.6 1.07 4 1.13 8.4.2 13.2l-2.2 12.6c-.8 4.534-2.33 8.8-4.6 12.8-2.27 3.867-5 7.267-8.2 10.2a38.535 38.535 0 0 1-10.8 7c-3.87 1.734-7.87 2.6-12 2.6h-34l24.8-139.8Zm22.8 124.8c1.2-3.2 2.2-7.133 3-11.8l4.2-24.4c1.6-8.666 1.33-15.2-.8-19.6-2-4.4-5.47-6.6-10.4-6.6h-11.8l-13.6 76.2h12.8c2.67 0 5-.466 7-1.4 2-.933 3.8-2.4 5.4-4.4 1.6-2.133 3-4.8 4.2-8Z" fill="#111"/>
</g></symbol><symbol id="user-in" viewBox="0 0 24 24"><g fill="none">
    <g stroke="currentColor" stroke-width="1.5" stroke-linecap="round" stroke-linejoin="round">
        <path d="M12 11.25a3.25 3.25 0 1 0 0-6.5 3.25 3.25 0 0 0 0 6.5ZM6.847 19.25h10.305c1.142 0 2.022-.982 1.489-1.992C17.856 15.773 16.068 14 12 14s-5.856 1.773-6.64 3.258c-.534 1.01.346 1.992 1.487 1.992Z"/>
    </g>
</g></symbol><symbol id="VK" viewBox="0 0 23 13"><g fill="none">
    <path fill-rule="evenodd" clip-rule="evenodd" d="M11.236 12.985h1.378s.401-.057.63-.286c.202-.2.202-.6.202-.6s-.03-1.831.832-2.117c.832-.257 1.922 1.773 3.07 2.546.86.6 1.52.457 1.52.457l3.07-.028s1.606-.086.832-1.345c-.058-.114-.43-.944-2.267-2.631-1.922-1.773-1.664-1.487.66-4.576 1.406-1.86 1.98-3.004 1.807-3.518-.172-.458-1.205-.344-1.205-.344l-3.442.029s-.259-.029-.46.086c-.229.143-.344.4-.344.4s-.545 1.459-1.262 2.689c-1.55 2.603-2.152 2.746-2.41 2.574-.573-.372-.43-1.516-.43-2.317 0-2.517.373-3.575-.746-3.832-.373-.086-.66-.143-1.607-.172-1.233 0-2.266 0-2.869.286-.401.2-.688.63-.516.63.23.028.746.142 1.004.514.344.486.344 1.545.344 1.545s.201 2.974-.487 3.346c-.46.257-1.09-.257-2.467-2.631-.689-1.202-1.234-2.546-1.234-2.546S4.724.887 4.552.772c-.143-.114-.43-.2-.746-.2L.736.601S.25.6.076.829c-.172.2 0 .572 0 .572s2.583 5.978 5.48 8.981c2.668 2.803 5.68 2.603 5.68 2.603Z" fill="#F3F3F3"/>
</g></symbol><symbol id="whatsapp" viewBox="0 0 24 24"><g fill="none">
    <path d="M20.16 6.84c-2.88-4.44-8.76-5.76-13.32-3-4.44 2.76-5.88 8.76-3 13.2l.24.36-.96 3.6 3.6-.96.36.24c1.56.84 3.24 1.32 4.92 1.32 1.8 0 3.6-.48 5.16-1.44 4.44-2.88 5.76-8.76 3-13.32Zm-2.52 9.24c-.48.72-1.08 1.2-1.92 1.32-.48 0-1.08.24-3.48-.72-2.04-.96-3.72-2.52-4.92-4.32-.72-.84-1.08-1.92-1.2-3 0-.96.36-1.8.96-2.4.24-.24.48-.36.72-.36h.6c.24 0 .48 0 .6.48.24.6.84 2.04.84 2.16.12.12.12.36 0 .48.12.24 0 .48-.12.6s-.24.36-.36.48c-.24.12-.36.36-.24.6.48.72 1.08 1.44 1.68 2.04.72.6 1.44 1.08 2.28 1.44.24.12.48.12.6-.12s.72-.84.96-1.08c.24-.24.36-.24.6-.12l1.92.96c.24.12.48.24.6.36.12.36.12.84-.12 1.2Z" fill="#F3F3F3"/>
</g></symbol></svg>